<svg id="Layer_1" data-name="Layer 1" xmlns="http://www.w3.org/2000/svg" viewBox="0 0 231.53 317.83"><defs><style>.cls-1{fill:#71ccff;}.cls-2{fill:#00c7ff;}.cls-3{fill:#009eff;}.cls-4{fill:none;stroke:#fff;stroke-linecap:round;stroke-miterlimit:10;stroke-width:9px;}.cls-5{font-size:122px;fill:#fff;font-family:Open Sans;font-weight:700;}</style></defs><title>logo_colored</title><polyline class="cls-1" points="211.1 297.4 231.53 297.4 231.53 51.95 205.56 25.97 179.58 0 19.84 0 19.84 20.43"/><line class="cls-1" x1="179.58" y1="40.86" x2="179.58"/><line class="cls-1" x1="231.53" y1="51.95" x2="190.67" y2="51.95"/><polygon class="cls-2" points="211.69 72.38 185.71 46.4 159.74 20.43 0 20.43 0 169.13 0 317.83 105.84 317.83 211.69 317.83 211.69 72.38"/><polyline class="cls-3" points="211.69 72.38 159.74 72.38 159.74 20.43"/><line class="cls-4" x1="28.66" y1="175.91" x2="183.03" y2="175.91"/><line class="cls-4" x1="28.66" y1="213.65" x2="141.7" y2="213.65"/><line class="cls-4" x1="28.66" y1="289.12" x2="183.03" y2="289.12"/><line class="cls-4" x1="28.66" y1="251.38" x2="160.6" y2="251.38"/><text class="cls-5" transform="translate(60.69 150.9)">D</text></svg>