<svg id="Layer_1" data-name="Layer 1" xmlns="http://www.w3.org/2000/svg" viewBox="0 0 240.53 326.83"><defs><style>.cls-1,.cls-2{fill:none;stroke:#fff;stroke-miterlimit:10;stroke-width:9px;}.cls-2{stroke-linecap:round;}.cls-3{font-size:122px;fill:#fff;font-family:Open Sans;font-weight:700;}</style></defs><title>logo</title><polyline class="cls-1" points="215.6 301.9 236.03 301.9 236.03 56.45 210.06 30.47 184.08 4.5 24.34 4.5 24.34 24.93"/><line class="cls-1" x1="184.08" y1="45.36" x2="184.08" y2="4.5"/><line class="cls-1" x1="236.03" y1="56.45" x2="195.17" y2="56.45"/><polygon class="cls-1" points="216.19 76.88 190.21 50.9 164.24 24.93 4.5 24.93 4.5 173.63 4.5 322.33 110.34 322.33 216.19 322.33 216.19 76.88"/><polyline class="cls-1" points="216.19 76.88 164.24 76.88 164.24 24.93"/><line class="cls-2" x1="33.16" y1="180.41" x2="187.53" y2="180.41"/><line class="cls-2" x1="33.16" y1="218.15" x2="146.2" y2="218.15"/><line class="cls-2" x1="33.16" y1="293.62" x2="187.53" y2="293.62"/><line class="cls-2" x1="33.16" y1="255.88" x2="165.1" y2="255.88"/><text class="cls-3" transform="translate(65.19 155.4)">D</text></svg>